<svg width="24" height="24" fill="none" xmlns="http://www.w3.org/2000/svg"><path d="m2 17-.97.242A1 1 0 0 0 2 18v-1Zm-1-4-.894-.447a1 1 0 0 0-.076.69L1 13Zm3-6V6a1 1 0 0 0-.894.553L4 7Zm9 0 .707-.707A1 1 0 0 0 13 6v1Zm4 4-.707.707a1 1 0 0 0 .543.28L17 11Zm6 1h1a1 1 0 0 0-.836-.986L23 12Zm0 5v1a1 1 0 0 0 1-1h-1Zm-20.03-.242-1-4-1.94.485 1 4 1.94-.485Zm-1.076-3.31 3-6-1.788-.895-3 6 1.788.894ZM4 8h9V6H4v2Zm8.293-.293 4 4 1.414-1.414-4-4-1.414 1.414Zm4.543 4.28 6 1 .328-1.973-6-1-.328 1.972ZM22 12v5h2v-5h-2ZM8.5 17A1.5 1.5 0 0 1 7 18.5v2a3.5 3.5 0 0 0 3.5-3.5h-2ZM7 18.5A1.5 1.5 0 0 1 5.5 17h-2A3.5 3.5 0 0 0 7 20.5v-2ZM5.5 17A1.5 1.5 0 0 1 7 15.5v-2A3.5 3.5 0 0 0 3.5 17h2ZM7 15.5A1.5 1.5 0 0 1 8.5 17h2A3.5 3.5 0 0 0 7 13.5v2ZM19.5 17a1.5 1.5 0 0 1-1.5 1.5v2a3.5 3.5 0 0 0 3.5-3.5h-2ZM18 18.5a1.5 1.5 0 0 1-1.5-1.5h-2a3.5 3.5 0 0 0 3.5 3.5v-2ZM16.5 17a1.5 1.5 0 0 1 1.5-1.5v-2a3.5 3.5 0 0 0-3.5 3.5h2Zm1.5-1.5a1.5 1.5 0 0 1 1.5 1.5h2a3.5 3.5 0 0 0-3.5-3.5v2ZM2 18h2.5v-2H2v2Zm7.5 0h6v-2h-6v2Zm11 0H23v-2h-2.5v2Z" fill="#143656"/></svg>