<svg width="24" height="25" fill="none" xmlns="http://www.w3.org/2000/svg"><path fill-rule="evenodd" clip-rule="evenodd" d="M12 3a3 3 0 0 0-3 3h6a3 3 0 0 0-3-3Zm5 3A5 5 0 0 0 7 6H5.105a2 2 0 0 0-1.99 2.199l.875 8.751-.731 3.657a2 2 0 0 0 1.96 2.392H18.78a2 2 0 0 0 1.961-2.392l-.731-3.657.875-8.751a1.999 1.999 0 0 0-1.99-2.2H17ZM8 8H5.105l.89 8.9.015.15-.03.145L5.22 21h13.56l-.76-3.804-.03-.147.015-.148.89-8.9.995.1-.995-.1H8Zm-1 9a1 1 0 0 1 1-1h8a1 1 0 1 1 0 2H8a1 1 0 0 1-1-1Z" fill="#143656"/></svg>