<svg width="17" height="17" fill="none" xmlns="http://www.w3.org/2000/svg"><path d="m11.67 3.83 1.5 1.5-1.5-1.5Zm.964-1.32L8.577 6.566a1.5 1.5 0 0 0-.41.767l-.375 1.875 1.875-.375c.29-.058.557-.2.767-.41l4.057-4.057a1.312 1.312 0 1 0-1.857-1.856v0Z" stroke="#143656" stroke-width="1.417" stroke-linecap="round" stroke-linejoin="round"/><path d="M13.458 10.625v2.125a1.417 1.417 0 0 1-1.416 1.417H4.25a1.417 1.417 0 0 1-1.417-1.417V4.958A1.417 1.417 0 0 1 4.25 3.542h2.125" stroke="#143656" stroke-width="1.417" stroke-linecap="round" stroke-linejoin="round"/></svg>