<svg width="208" height="56" fill="none" xmlns="http://www.w3.org/2000/svg"><path d="M49.256 39.16c-.49 0-.885-.15-1.184-.448-.299-.32-.448-.725-.448-1.216V18.04c0-.49.139-.875.416-1.152.299-.299.704-.448 1.216-.448h11.456c1.024 0 1.536.448 1.536 1.344 0 .896-.512 1.344-1.536 1.344h-9.824V26.2h9.184c1.024 0 1.536.448 1.536 1.344 0 .896-.512 1.344-1.536 1.344h-9.184v8.608c0 .512-.15.917-.448 1.216-.277.299-.672.448-1.184.448ZM71.269 23c2.07 0 3.605.523 4.608 1.568 1.024 1.045 1.536 2.635 1.536 4.768v8.288c0 .49-.139.875-.416 1.152-.278.256-.662.384-1.152.384-.47 0-.843-.139-1.12-.416-.278-.277-.416-.65-.416-1.12V36.44c-.406.896-1.014 1.59-1.824 2.08-.79.47-1.718.704-2.784.704-1.024 0-1.963-.203-2.816-.608-.832-.427-1.494-1.003-1.984-1.728-.49-.725-.736-1.547-.736-2.464-.022-1.152.266-2.048.864-2.688.597-.661 1.568-1.13 2.912-1.408 1.344-.299 3.21-.448 5.6-.448h.736v-.928c0-1.195-.246-2.059-.736-2.592-.49-.533-1.28-.8-2.368-.8a7.54 7.54 0 0 0-2.112.288 15.87 15.87 0 0 0-2.176.832c-.576.32-.982.48-1.216.48-.32 0-.587-.117-.8-.352-.192-.235-.288-.533-.288-.896 0-.32.085-.597.256-.832.192-.256.49-.501.896-.736.746-.405 1.621-.725 2.624-.96A11.755 11.755 0 0 1 71.269 23Zm-.992 13.824c1.173 0 2.133-.395 2.88-1.184.746-.81 1.12-1.845 1.12-3.104v-.832H73.7c-1.664 0-2.944.075-3.84.224-.896.15-1.536.405-1.92.768-.384.341-.576.843-.576 1.504 0 .768.277 1.397.832 1.888.554.49 1.248.736 2.08.736Zm16.997 2.4c-2.176 0-3.958-.448-5.344-1.344-.384-.235-.662-.48-.832-.736a1.682 1.682 0 0 1-.224-.864c0-.341.096-.63.288-.864a.909.909 0 0 1 .736-.352c.277 0 .714.17 1.312.512.64.341 1.258.619 1.856.832.618.213 1.386.32 2.304.32 1.024 0 1.824-.181 2.4-.544.576-.363.864-.875.864-1.536 0-.427-.118-.768-.352-1.024-.214-.256-.598-.48-1.152-.672-.555-.213-1.376-.437-2.464-.672-1.878-.405-3.232-.95-4.064-1.632-.81-.704-1.216-1.653-1.216-2.848 0-.917.266-1.739.8-2.464.533-.747 1.27-1.323 2.208-1.728.938-.405 2.005-.608 3.2-.608a8.93 8.93 0 0 1 2.496.352 6.78 6.78 0 0 1 2.144.96c.704.47 1.056 1.013 1.056 1.632 0 .341-.107.63-.32.864-.192.235-.427.352-.704.352-.192 0-.384-.043-.576-.128a7.594 7.594 0 0 1-.768-.416 10.392 10.392 0 0 0-1.632-.8c-.49-.192-1.11-.288-1.856-.288-.896 0-1.622.192-2.176.576-.534.384-.8.907-.8 1.568 0 .597.245 1.067.736 1.408.512.32 1.461.63 2.848.928 1.43.299 2.55.64 3.36 1.024s1.386.864 1.728 1.44c.362.555.544 1.27.544 2.144 0 1.387-.587 2.507-1.76 3.36-1.152.832-2.699 1.248-4.64 1.248ZM105.719 23c3.712 0 5.568 2.101 5.568 6.304v8.32c0 .47-.149.843-.448 1.12-.298.277-.693.416-1.184.416-.49 0-.885-.139-1.184-.416-.277-.277-.416-.65-.416-1.12v-8.288c0-1.28-.266-2.219-.8-2.816-.512-.597-1.322-.896-2.432-.896-1.301 0-2.346.405-3.136 1.216-.789.81-1.184 1.899-1.184 3.264v7.52c0 .47-.149.843-.448 1.12-.277.277-.661.416-1.152.416-.49 0-.885-.139-1.184-.416-.298-.277-.448-.65-.448-1.12V17.816c0-.47.15-.843.448-1.12.32-.277.726-.416 1.216-.416.47 0 .843.139 1.12.416.299.256.448.608.448 1.056v8a5.35 5.35 0 0 1 2.144-2.048c.896-.47 1.92-.704 3.072-.704Zm11.622 16.16c-.47 0-.864-.128-1.184-.384-.299-.256-.448-.64-.448-1.152V24.632c0-.512.149-.896.448-1.152.32-.277.714-.416 1.184-.416.469 0 .853.139 1.152.416.298.256.448.64.448 1.152v12.992c0 .512-.15.896-.448 1.152-.299.256-.683.384-1.152.384Zm0-19.232c-.619 0-1.11-.17-1.472-.512-.363-.341-.544-.79-.544-1.344 0-.555.181-.992.544-1.312.362-.341.853-.512 1.472-.512.597 0 1.077.17 1.44.512.384.32.576.757.576 1.312s-.182 1.003-.544 1.344c-.363.341-.854.512-1.472.512Zm12.902 19.296c-1.536 0-2.891-.33-4.064-.992-1.152-.661-2.048-1.6-2.688-2.816-.619-1.237-.928-2.667-.928-4.288 0-1.643.309-3.072.928-4.288.64-1.237 1.536-2.187 2.688-2.848 1.173-.661 2.528-.992 4.064-.992s2.88.33 4.032.992c1.173.661 2.069 1.61 2.688 2.848.64 1.216.96 2.645.96 4.288 0 1.621-.32 3.05-.96 4.288a6.592 6.592 0 0 1-2.688 2.816c-1.152.661-2.496.992-4.032.992Zm0-2.56c1.429 0 2.517-.47 3.264-1.408.768-.939 1.152-2.315 1.152-4.128 0-1.792-.384-3.157-1.152-4.096-.768-.96-1.856-1.44-3.264-1.44-1.408 0-2.496.48-3.264 1.44-.768.939-1.152 2.304-1.152 4.096 0 1.813.373 3.19 1.12 4.128.768.939 1.866 1.408 3.296 1.408ZM149.937 23c3.734 0 5.6 2.101 5.6 6.304v8.32c0 .49-.149.875-.448 1.152-.277.256-.672.384-1.184.384-.49 0-.885-.139-1.184-.416-.277-.277-.416-.65-.416-1.12v-8.16c0-1.323-.266-2.293-.8-2.912-.512-.619-1.322-.928-2.432-.928-1.301 0-2.346.405-3.136 1.216-.789.81-1.184 1.899-1.184 3.264v7.52c0 .47-.149.843-.448 1.12-.277.277-.661.416-1.152.416-.49 0-.885-.139-1.184-.416-.298-.277-.448-.65-.448-1.12V24.6c0-.448.15-.81.448-1.088.32-.299.715-.448 1.184-.448.47 0 .843.139 1.12.416.278.277.416.64.416 1.088v1.312a5.194 5.194 0 0 1 2.144-2.144c.918-.49 1.952-.736 3.104-.736Zm20.475 16.16c-.49 0-.885-.15-1.184-.448-.298-.32-.448-.725-.448-1.216V18.04c0-.49.139-.875.416-1.152.299-.299.704-.448 1.216-.448h11.456c1.024 0 1.536.448 1.536 1.344 0 .896-.512 1.344-1.536 1.344h-9.824V26.2h9.184c1.024 0 1.536.448 1.536 1.344 0 .896-.512 1.344-1.536 1.344h-9.184v8.608c0 .512-.149.917-.448 1.216-.277.299-.672.448-1.184.448Zm18.835 0c-.469 0-.864-.128-1.184-.384-.299-.256-.448-.64-.448-1.152V24.632c0-.512.149-.896.448-1.152.32-.277.715-.416 1.184-.416s.853.139 1.152.416c.299.256.448.64.448 1.152v12.992c0 .512-.149.896-.448 1.152-.299.256-.683.384-1.152.384Zm0-19.232c-.619 0-1.109-.17-1.472-.512-.363-.341-.544-.79-.544-1.344 0-.555.181-.992.544-1.312.363-.341.853-.512 1.472-.512.597 0 1.077.17 1.44.512.384.32.576.757.576 1.312s-.181 1.003-.544 1.344c-.363.341-.853.512-1.472.512Zm14.204 16.768c.469.043.8.17.992.384.213.192.32.47.32.832 0 .427-.171.757-.512.992-.32.213-.8.299-1.44.256l-.864-.064c-1.728-.128-3.019-.65-3.872-1.568-.854-.939-1.28-2.315-1.28-4.128v-7.52h-1.92c-.939 0-1.409-.416-1.409-1.248 0-.384.118-.683.353-.896.256-.235.608-.352 1.056-.352h1.92v-3.296c0-.49.138-.875.416-1.152.298-.277.693-.416 1.184-.416.49 0 .885.139 1.184.416.298.277.448.661.448 1.152v3.296h3.168c.448 0 .789.117 1.024.352.256.213.384.512.384.896 0 .405-.128.715-.384.928-.235.213-.576.32-1.024.32h-3.168v7.744c0 1.003.202 1.739.608 2.208.426.47 1.066.736 1.92.8l.896.064ZM33.462 38.894H5.538a.546.546 0 0 0-.538.553c0 .305.24.553.538.553h27.924a.546.546 0 0 0 .538-.553.546.546 0 0 0-.538-.553Z" fill="#000"/><path fill-rule="evenodd" clip-rule="evenodd" d="M14.633 21.368a.593.593 0 1 1 .922.75c-.005.006-1.482 1.782.78 3.044 3.199 1.784 3.166 3.974 3.166 3.98a.596.596 0 1 1-1.192 0c0-.004.027-1.502-2.551-2.94-3.513-1.96-1.131-4.826-1.125-4.834Zm16.9 7.147-5.23-.375-3.455-5.768-1.728-2.888v-.8a1.57 1.57 0 0 0-2.135-1.467l-3.123 1.207c-1.037.392-1.733.43-1.47-.55a2.349 2.349 0 0 0-1.156-2.703l-3.9-2.099a.603.603 0 0 0-.802.222l-5.719 9.175-.12-.07a.602.602 0 0 0-.824.223l-.01.019-1.79 3.377a.606.606 0 0 0 .24.813l21.776 12.094c.089.049.19.075.292.075h9A3.628 3.628 0 0 0 35 35.372v-3.128a3.75 3.75 0 0 0-3.467-3.73ZM10.57 15.107l2.095 1.127c.47.249.705.791.566 1.305-.102 1.045-.855 1.479-1.576 1.029L9.28 17.142c-1.132-.692-.725-3.118 1.29-2.035ZM6.912 20.37l1.082.806a3.468 3.468 0 0 1 1.346 3.266c-.25 1.004-.716 1.342-1.41.976l-3.035-1.752c-.687-.478-.699-1.155-.288-1.756l.786-1.244c.19-.277.688-.904 1.52-.296ZM31.38 37.79h-8.845L3.054 26.972c-2.551-1.416-.262-3.157 1.035-2.369l18.54 10.69c.092.052.196.08.302.08h8.731c2.374-.077 1.469 2.419-.283 2.419Zm.078-3.627h-8.365l-11.23-6.48c-1.627-1.04-1.367-1.924-1.321-3.139a4.648 4.648 0 0 0-1.827-4.341l-.767-.552c-1.052-.837-1.228-2.633.865-1.375l3.965 2.384a.598.598 0 0 0 .233.076c.015 0 .027.005.042.006.014.001.024.004.035.004a.594.594 0 0 0 .218-.04l6.113-2.363a.365.365 0 0 1 .494.342c0 1.092-.636 1.071-1.447 1.882-2.534 2.535.668 3.234 5.193 9.129a.6.6 0 0 0 .669.205l1.696-.567 5.423.388a2.537 2.537 0 0 1 2.347 2.523c.046 1.242-.716 1.918-2.336 1.918Z" fill="#000"/></svg>